<mxfile host="65bd71144e">
    <diagram id="81iVqLC2cJ9356ApQlGH" name="Page-1">
        <mxGraphModel dx="832" dy="540" grid="1" gridSize="10" guides="1" tooltips="1" connect="1" arrows="1" fold="1" page="1" pageScale="1" pageWidth="1100" pageHeight="850" math="0" shadow="0">
            <root>
                <mxCell id="0"/>
                <mxCell id="1" parent="0"/>
                <mxCell id="6" value="&lt;h1 style=&quot;font-size: 38px;&quot;&gt;Python&lt;/h1&gt;" style="text;html=1;spacing=5;spacingTop=-20;whiteSpace=wrap;overflow=hidden;rounded=0;align=center;" vertex="1" parent="1">
                    <mxGeometry x="330" y="20" width="190" height="120" as="geometry"/>
                </mxCell>
                <mxCell id="21" style="edgeStyle=none;html=1;exitX=0.5;exitY=1;exitDx=0;exitDy=0;entryX=0.442;entryY=0;entryDx=0;entryDy=0;entryPerimeter=0;fontSize=16;" edge="1" parent="1" source="7" target="18">
                    <mxGeometry relative="1" as="geometry"/>
                </mxCell>
                <mxCell id="7" value="&lt;font style=&quot;font-size: 23px;&quot;&gt;Python&lt;/font&gt;" style="ellipse;whiteSpace=wrap;html=1;fillColor=#a20025;fontColor=#ffffff;strokeColor=#6F0000;" vertex="1" parent="1">
                    <mxGeometry x="360" y="220" width="120" height="100" as="geometry"/>
                </mxCell>
                <mxCell id="11" style="edgeStyle=none;html=1;exitX=1;exitY=1;exitDx=0;exitDy=0;entryX=0.083;entryY=0.3;entryDx=0;entryDy=0;entryPerimeter=0;fontSize=16;" edge="1" parent="1" source="9" target="7">
                    <mxGeometry relative="1" as="geometry"/>
                </mxCell>
                <mxCell id="9" value="&lt;span style=&quot;font-size: 16px;&quot;&gt;Coding background&lt;/span&gt;" style="ellipse;whiteSpace=wrap;html=1;fillColor=#a20025;fontColor=#ffffff;strokeColor=#6F0000;" vertex="1" parent="1">
                    <mxGeometry x="190" y="120" width="120" height="100" as="geometry"/>
                </mxCell>
                <mxCell id="15" style="edgeStyle=none;html=1;exitX=0;exitY=1;exitDx=0;exitDy=0;entryX=0.917;entryY=0.4;entryDx=0;entryDy=0;entryPerimeter=0;fontSize=16;" edge="1" parent="1" source="13" target="7">
                    <mxGeometry relative="1" as="geometry"/>
                </mxCell>
                <mxCell id="13" value="&lt;span style=&quot;font-size: 23px;&quot;&gt;Beginner&lt;/span&gt;" style="ellipse;whiteSpace=wrap;html=1;fillColor=#a20025;fontColor=#ffffff;strokeColor=#6F0000;" vertex="1" parent="1">
                    <mxGeometry x="540" y="120" width="120" height="100" as="geometry"/>
                </mxCell>
                <mxCell id="17" style="edgeStyle=none;html=1;entryX=0;entryY=0.66;entryDx=0;entryDy=0;entryPerimeter=0;fontSize=16;" edge="1" parent="1" source="16" target="9">
                    <mxGeometry relative="1" as="geometry"/>
                </mxCell>
                <mxCell id="16" value="&lt;ol&gt;&lt;li&gt;JavaScript&lt;/li&gt;&lt;li&gt;C++&lt;/li&gt;&lt;li&gt;C#&lt;/li&gt;&lt;li&gt;C&lt;/li&gt;&lt;/ol&gt;" style="whiteSpace=wrap;html=1;aspect=fixed;fontSize=16;align=left;" vertex="1" parent="1">
                    <mxGeometry x="10" y="230" width="180" height="180" as="geometry"/>
                </mxCell>
                <mxCell id="18" value="&lt;div style=&quot;line-height: 90%;&quot;&gt;&lt;p style=&quot;line-height: 90%;&quot;&gt;&lt;/p&gt;&lt;ol style=&quot;line-height: 90%;&quot;&gt;&lt;li&gt;&lt;font color=&quot;#ff0000&quot;&gt;Basics&lt;/font&gt;&lt;/li&gt;&lt;li&gt;&lt;font color=&quot;#ff0000&quot;&gt;Strings &amp;amp; conditionals&lt;/font&gt;&lt;/li&gt;&lt;li&gt;lists &amp;amp; Tuples&lt;/li&gt;&lt;li&gt;Dictionary and Sets&lt;/li&gt;&lt;li&gt;Loops&lt;/li&gt;&lt;li&gt;Function and recursion&lt;/li&gt;&lt;li&gt;File input/output&lt;/li&gt;&lt;li&gt;OOPS&lt;/li&gt;&lt;/ol&gt;&lt;p&gt;&lt;/p&gt;&lt;/div&gt;" style="rounded=1;whiteSpace=wrap;html=1;fontSize=16;align=left;fillColor=#f0a30a;strokeColor=#BD7000;fontColor=#000000;" vertex="1" parent="1">
                    <mxGeometry x="230" y="370" width="430" height="180" as="geometry"/>
                </mxCell>
            </root>
        </mxGraphModel>
    </diagram>
</mxfile>